# xmcd
#
# Track frame offsets:
#	150
#	12860
#	30250
#	45202
#	57269
#	71343
#	87104
#	106160
#
# Disc length: 1596 seconds
# Revision: 0
# Processed by: cddbd v1.5.2PL0 Copyright (c) Steve Scherf et al.
# Submitted via: dBpowerAMP V12.0
#
DISCID=4d063a08
DTITLE=George Strait - Nothin' But Ones
DYEAR=2013
DGENRE=Country and Folk
TTITLE0=The Chair
TTITLE1=Carry Your Love With Me
TTITLE2=Carried Away
TTITLE3=If I Know Me
TTITLE4=Ocean Front Property
TTITLE5=I Cross My Heart
TTITLE6=I Can Still Make Cheyenne
TTITLE7=Here For A Good Time
EXTD=
EXTT0=
EXTT1=
EXTT2=
EXTT3=
EXTT4=
EXTT5=
EXTT6=
EXTT7=
PLAYORDER=
